<svg version="1.1" id="Layer_1" xmlns="http://www.w3.org/2000/svg" xmlns:xlink="http://www.w3.org/1999/xlink" x="0px" y="0px"
	 width="100%" viewBox="0 0 1024 1024" enable-background="new 0 0 1024 1024" xml:space="preserve">
<rect width="1024" height="1024" fill="#ffffff" />
<path fill="#000000" opacity="0" stroke="none"
	d="
M493.019409,592.024292
	C493.019409,592.024292 493.030823,592.088989 493.789001,591.639465 
	C493.876984,566.066650 493.972839,540.493896 494.008850,514.921021 
	C494.009766,514.264954 493.354797,513.608032 492.953766,512.037415 
	C493.001862,509.205902 493.406311,506.327484 493.040924,503.550354 
	C490.434784,483.741638 479.662933,468.349457 464.666412,456.373383 
	C451.442108,445.812622 435.894928,439.814972 418.302338,441.027954 
	C412.673523,441.416107 406.812286,440.212524 401.378571,441.317017 
	C385.089874,444.628113 370.930695,451.880066 359.121979,464.171417 
	C346.388733,477.425110 338.976776,492.440643 338.200989,511.327118 
	C338.109863,527.254456 338.005951,543.181763 337.973022,559.109192 
	C337.971680,559.765137 338.635773,560.422607 339.031311,562.005798 
	C339.080902,572.033386 339.130493,582.060913 339.608978,592.807129 
	C348.080383,592.870361 356.552002,592.987793 365.022949,592.950928 
	C366.714264,592.943604 368.402985,592.346863 370.021545,592.021667 
	C370.021545,592.021667 370.021454,592.093018 370.752625,591.608398 
	C370.777130,565.115906 370.801666,538.623352 370.973083,511.280273 
	C372.582520,499.831085 376.743927,489.969513 386.149170,482.348389 
	C393.088959,476.725067 400.506531,472.121429 409.159760,471.153412 
	C435.473602,468.209747 457.122925,484.392670 461.104004,512.040833 
	C461.076172,537.359314 461.033264,562.677734 461.061615,587.996155 
	C461.063171,589.363708 461.661713,590.730530 461.979370,592.017334 
	C461.979370,592.017334 461.899048,592.020508 462.400848,592.739319 
	C471.120331,592.827576 479.839874,592.964294 488.559296,592.958130 
	C490.068085,592.957031 491.576508,592.350769 493.019409,592.024292 
M213.016708,507.965759 
	C213.016708,507.965759 213.088989,507.980560 212.564529,507.285309 
	C183.748703,507.242249 154.932892,507.199158 125.343300,506.992584 
	C117.622833,505.293060 112.234161,501.197632 110.996185,492.010956 
	C110.966240,466.030853 110.936295,440.050720 111.046867,413.298920 
	C114.465622,401.876312 119.512383,398.095886 131.256897,398.076385 
	C157.520721,398.032745 183.784515,397.967346 210.823212,397.532562 
	C210.876221,385.438934 210.944016,373.345276 210.943741,361.251648 
	C210.943726,360.561157 210.387527,359.870667 209.146027,359.080750 
	C182.989868,359.049713 156.833618,358.972961 130.677658,359.030792 
	C126.095367,359.040924 121.422623,359.147705 116.950836,360.023071 
	C105.969673,362.172607 95.732468,366.095337 87.333557,373.945740 
	C74.582375,385.864197 69.275040,401.004791 69.018036,417.910614 
	C68.635689,443.061798 68.847389,468.223602 69.003532,493.379700 
	C69.028656,497.427643 69.826668,501.524139 70.695290,505.504791 
	C75.917961,529.438721 99.234077,546.745056 123.350090,546.787415 
	C152.566635,546.850586 181.783188,546.920471 210.999756,546.937012 
	C211.695099,546.937439 212.390762,546.342102 213.020340,546.024902 
	C213.020340,546.024902 213.031250,546.089966 213.781052,545.629578 
	C213.864532,533.729431 213.964600,521.829407 213.988144,509.929108 
	C213.989487,509.251221 213.364838,508.572052 213.016708,507.965759 
M715.625183,351.225433 
	C705.903564,351.151306 696.181946,351.052429 686.460327,351.046814 
	C685.616943,351.046326 684.773193,351.661194 684.001709,352.005188 
	C684.001709,352.005188 684.016846,351.933167 683.246338,352.361969 
	C683.164612,353.184662 683.011475,354.007355 683.011414,354.830048 
	C683.009277,409.700714 683.013794,464.571350 683.066467,519.441956 
	C683.067566,520.622742 683.633118,521.802979 684.024048,523.887634 
	C684.351990,527.140015 684.401978,530.448975 685.051514,533.635803 
	C690.727783,561.485168 707.575378,579.890564 733.713623,589.937317 
	C745.098633,594.313416 756.931519,595.699646 769.306030,594.096985 
	C782.712708,592.360779 794.853638,588.046387 805.490845,579.863892 
	C810.820557,575.764038 815.574951,570.916199 820.353027,566.619263 
	C825.959106,571.433289 831.197693,576.791626 837.254517,580.961304 
	C851.751343,590.941223 868.118042,594.676636 885.631897,594.009827 
	C903.304932,593.336853 918.411682,586.715271 931.558289,575.080383 
	C934.390991,572.573425 934.225525,570.407166 931.739258,568.123901 
	C925.957092,562.813965 920.084595,557.602295 914.253113,552.354675 
	C900.186157,565.564575 883.768188,569.312317 865.904480,562.736450 
	C852.504639,557.803772 842.676941,548.590027 839.897644,532.801025 
	C879.114502,532.801025 917.844055,532.801025 956.501831,532.801025 
	C960.368164,495.895233 943.143433,463.949463 908.525940,451.472931 
	C877.171631,440.172485 842.667236,448.503448 821.519470,475.787903 
	C819.591858,473.949036 817.598572,472.199188 815.778503,470.284668 
	C808.033020,462.137054 799.143982,455.877625 788.550354,451.735992 
	C775.305298,446.557770 761.860718,446.174469 748.028198,447.889465 
	C736.246155,449.350159 726.222839,454.712799 716.121399,460.171265 
	C716.082397,455.191132 716.018433,450.211090 716.008484,445.230896 
	C715.946045,414.181946 715.895752,383.132996 715.625183,351.225433 
M690.146240,673.918701 
	C692.910828,673.918701 695.675415,673.918701 698.569946,673.918701 
	C698.569946,659.008179 698.569946,644.694031 698.569946,630.243958 
	C695.224243,630.243958 692.260437,630.243958 688.418396,630.419800 
	C688.306702,644.465515 688.184998,658.511230 688.134155,672.557190 
	C688.132690,672.956909 688.885132,673.359314 690.146240,673.918701 
M907.609253,673.654541 
	C907.734985,659.696167 907.874207,645.737793 907.930054,631.779114 
	C907.932007,631.292603 907.102661,630.802734 905.814026,630.112976 
	C902.693176,630.112976 899.572266,630.112976 897.016418,630.112976 
	C897.016418,644.943604 897.016418,659.301697 897.016418,673.681458 
	C900.772583,673.681458 903.737915,673.681458 907.609253,673.654541 
M715.069824,673.878418 
	C717.957092,673.816833 720.844299,673.755249 724.640747,673.684631 
	C724.735413,653.789429 724.834473,633.894165 724.886353,613.998840 
	C724.887207,613.673035 724.311768,613.345764 723.505249,612.354858 
	C720.390320,612.330444 717.275330,612.306030 713.290039,612.426270 
	C713.199890,632.305237 713.100159,652.184204 713.070129,672.063232 
	C713.069275,672.607483 713.819397,673.152954 715.069824,673.878418 
M749.600403,673.649231 
	C749.704834,653.590088 749.815735,633.530945 749.865723,613.471680 
	C749.866699,613.088501 749.148499,612.703491 747.904175,612.128418 
	C745.130859,612.128418 742.357544,612.128418 739.416565,612.128418 
	C739.416565,632.970764 739.416565,653.306152 739.416565,673.686157 
	C742.761292,673.686157 745.728455,673.686157 749.600403,673.649231 
M271.567719,488.112457 
	C275.388489,489.674255 278.178101,492.294373 278.923462,496.424042 
	C279.562775,499.966064 279.970032,503.597290 280.001526,507.193268 
	C280.123779,521.141724 280.431427,535.106445 279.889221,549.034729 
	C279.640106,555.433594 279.841095,563.015015 270.135651,565.069885 
	C252.893936,565.054382 235.652176,565.019775 218.410614,565.065674 
	C217.245087,565.068726 216.081177,565.678223 214.163300,566.027039 
	C212.088593,567.353516 208.889328,568.226624 208.139130,570.087158 
	C205.304871,577.116150 205.157089,584.540649 207.435272,592.732849 
	C229.150772,592.822571 250.866272,592.919006 272.581879,592.960266 
	C273.081482,592.961182 273.582275,592.339050 274.928680,591.968994 
	C292.806458,591.281616 308.319122,574.909180 308.881378,555.119629 
	C309.359192,538.301514 308.683319,521.452148 309.073639,504.629517 
	C309.301514,494.807465 307.514648,485.706940 302.125488,477.558533 
	C296.011383,468.314087 287.434906,461.585754 276.278412,461.230957 
	C253.880356,460.518677 231.442642,461.045807 209.021378,461.096649 
	C208.101227,461.098755 207.181915,461.458923 206.020798,461.703033 
	C206.373550,467.577209 206.683304,473.212311 207.058762,478.843079 
	C207.382965,483.705322 210.046280,486.393677 215.318512,487.757568 
	C233.847733,487.766235 252.376938,487.774902 271.567719,488.112457 
M656.090515,486.604126 
	C651.496216,480.682709 647.261658,474.435150 642.242859,468.898590 
	C624.407410,449.223480 600.949219,444.478210 576.191101,447.241241 
	C557.113525,449.370361 541.215759,459.034302 528.755066,474.469635 
	C514.750610,491.817383 509.909332,511.344147 513.106323,532.786072 
	C516.944458,558.527710 532.510010,576.327454 554.946106,587.955688 
	C569.786499,595.647217 585.961060,597.403076 602.572632,594.059998 
	C629.215820,588.698120 648.229980,573.647705 658.635254,548.688660 
	C667.200195,528.144043 665.668274,507.464081 656.090515,486.604126 
M884.982849,645.778076 
	C881.469177,626.957581 860.552795,625.982117 850.292175,632.242554 
	C842.589172,636.942566 838.818909,648.094055 841.068237,658.251282 
	C843.083984,667.353882 850.581787,674.229797 860.155457,674.883423 
	C871.295715,675.643982 881.743713,671.935181 884.348145,660.054504 
	C885.293762,655.740479 884.798950,651.110840 884.982849,645.778076 
M799.944458,671.171753 
	C799.946899,664.020020 800.247681,656.852356 799.867859,649.720947 
	C799.487915,642.586670 805.000061,638.086243 811.295471,638.016724 
	C816.633179,637.957703 818.994507,641.636902 818.988770,649.418884 
	C818.982849,657.499634 818.987488,665.580322 818.987488,673.643555 
	C822.967102,673.643555 826.211243,673.643555 829.961304,673.643555 
	C829.961304,663.388672 829.571533,653.428040 830.083496,643.513977 
	C830.500122,635.444763 823.330444,627.904846 815.589355,629.087646 
	C810.293884,629.896729 805.090820,631.310852 799.671631,632.492615 
	C797.559448,627.495483 793.091309,630.828613 789.303345,630.340576 
	C789.303345,645.076111 789.303345,659.297241 789.303345,674.801636 
	C793.216309,673.806519 796.558838,672.956543 799.944458,671.171753 
M936.524353,674.970215 
	C939.937622,674.549500 943.420471,674.424194 946.748535,673.641357 
	C952.277588,672.340759 955.911743,667.803955 955.976501,662.783813 
	C956.085266,654.355225 954.100464,651.081909 947.060852,649.000549 
	C942.741272,647.723511 938.185059,647.202393 933.936523,645.751831 
	C932.343079,645.207703 931.319824,642.993774 930.036621,641.541138 
	C931.580017,640.351562 933.108521,638.171570 934.669495,638.148193 
	C940.649231,638.058228 946.639404,638.661255 952.894104,639.020996 
	C953.252869,636.781311 953.696777,634.010559 954.188232,630.942688 
	C948.211487,630.240356 943.034790,629.204651 937.849731,629.160645 
	C933.848694,629.126648 929.546753,629.641296 925.900879,631.163269 
	C920.902893,633.249634 918.187805,639.710388 919.081909,644.720276 
	C920.017883,649.964844 924.783020,654.066895 930.620178,655.033264 
	C934.440796,655.665771 938.280396,656.452759 941.930542,657.700073 
	C943.207947,658.136658 944.653259,660.124756 944.710938,661.460999 
	C944.759644,662.591309 943.127747,664.209839 941.854492,664.873779 
	C940.348755,665.658997 938.404358,666.030579 936.694275,665.916870 
	C931.357239,665.561829 926.041016,664.893311 920.730286,664.347656 
	C918.017517,671.083801 918.503174,672.257507 925.355835,673.729980 
	C928.705811,674.449829 932.183472,674.575195 936.524353,674.970215 
M764.927979,673.671387 
	C768.174377,673.671387 771.420715,673.671387 774.672607,673.671387 
	C774.672607,658.964966 774.672607,644.726440 774.672607,630.361816 
	C771.094177,630.361816 767.855774,630.361816 764.301697,630.361816 
	C764.301697,644.777527 764.301697,658.882935 764.927979,673.671387 
M775.627930,615.083191 
	C774.010925,611.136780 770.538940,610.284851 767.131836,611.211548 
	C765.449280,611.669067 763.682800,614.194946 763.181763,616.106689 
	C762.245789,619.677856 765.016296,622.678528 768.794861,623.044678 
	C773.042175,623.456238 775.422852,621.055298 775.627930,615.083191 
M695.105347,611.019531 
	C690.950623,610.553528 687.842285,612.072021 687.076904,616.317688 
	C686.468567,619.692261 688.515930,622.028687 691.760742,622.744080 
	C695.084045,623.476746 697.916626,622.554871 699.454590,619.087097 
	C701.234558,615.073853 699.183533,612.918701 695.105347,611.019531 
M907.629150,614.233887 
	C905.661560,611.865906 903.368958,609.466003 900.182983,611.465149 
	C898.151855,612.739624 895.784363,615.068787 895.568359,617.134277 
	C895.400452,618.740967 897.998169,621.244141 899.936951,622.339539 
	C904.201111,624.748535 907.957642,621.130127 907.629150,614.233887 
z"/>
<path fill="#C05B24" opacity="1.000000" stroke="none" 
	d="
M716.538818,461.037079 
	C726.222839,454.712799 736.246155,449.350159 748.028198,447.889465 
	C761.860718,446.174469 775.305298,446.557770 788.550354,451.735992 
	C799.143982,455.877625 808.033020,462.137054 815.778503,470.284668 
	C817.598572,472.199188 819.591858,473.949036 821.519470,475.787903 
	C842.667236,448.503448 877.171631,440.172485 908.525940,451.472931 
	C943.143433,463.949463 960.368164,495.895233 956.501831,532.801025 
	C917.844055,532.801025 879.114502,532.801025 839.897644,532.801025 
	C842.676941,548.590027 852.504639,557.803772 865.904480,562.736450 
	C883.768188,569.312317 900.186157,565.564575 914.253113,552.354675 
	C920.084595,557.602295 925.957092,562.813965 931.739258,568.123901 
	C934.225525,570.407166 934.390991,572.573425 931.558289,575.080383 
	C918.411682,586.715271 903.304932,593.336853 885.631897,594.009827 
	C868.118042,594.676636 851.751343,590.941223 837.254517,580.961304 
	C831.197693,576.791626 825.959106,571.433289 820.353027,566.619263 
	C815.574951,570.916199 810.820557,575.764038 805.490845,579.863892 
	C794.853638,588.046387 782.712708,592.360779 769.306030,594.096985 
	C756.931519,595.699646 745.098633,594.313416 733.713623,589.937317 
	C707.575378,579.890564 690.727783,561.485168 685.051514,533.635803 
	C684.401978,530.448975 684.351990,527.140015 683.977844,522.968445 
	C683.960083,465.343903 683.988464,408.638519 684.016846,351.933167 
	C684.016846,351.933167 684.001709,352.005188 684.438721,351.988770 
	C694.809326,352.023621 704.742859,352.074890 714.719604,352.584991 
	C714.817688,355.540070 714.918884,358.036285 714.920349,360.532593 
	C714.938660,391.503632 714.905457,422.474792 715.018555,453.445465 
	C715.027832,455.977814 716.009216,458.506622 716.538818,461.037079 
M842.583252,506.471802 
	C843.895691,506.641418 845.207886,506.957153 846.520508,506.958984 
	C870.436584,506.992554 894.352661,507.004791 918.268616,506.955872 
	C919.891479,506.952545 921.513367,506.428223 923.597168,505.642883 
	C921.817871,497.475800 917.382324,491.085388 911.110840,485.598663 
	C894.480103,471.049042 867.659851,471.129608 851.691040,487.089813 
	C847.212036,491.566406 844.386230,497.697144 840.570618,503.582886 
	C840.819092,504.402130 841.067566,505.221375 841.560303,506.044800 
	C841.560303,506.044800 841.773743,506.163452 842.583252,506.471802 
M715.371277,529.787415 
	C717.236877,538.774414 721.268372,547.182190 727.907715,552.968262 
	C740.611572,564.039429 755.177734,570.613098 772.789612,564.651184 
	C780.847107,561.923645 788.328552,558.151062 793.677490,551.664795 
	C802.266235,541.249878 807.102722,529.433044 805.149658,515.343750 
	C803.801025,505.614441 800.320496,496.987152 793.499634,490.157135 
	C781.926941,478.568787 767.984009,473.547180 751.525330,477.032043 
	C739.889404,479.495758 730.690796,485.363403 723.398987,494.986908 
	C715.588867,505.294495 714.405945,516.791443 715.371277,529.787415 
z"/>
<path fill="#5D5D5B" opacity="1.000000" stroke="none" 
	d="
M122.937080,546.007507 
	C99.234077,546.745056 75.917961,529.438721 70.695290,505.504791 
	C69.826668,501.524139 69.028656,497.427643 69.003532,493.379700 
	C68.847389,468.223602 68.635689,443.061798 69.018036,417.910614 
	C69.275040,401.004791 74.582375,385.864197 87.333557,373.945740 
	C95.732468,366.095337 105.969673,362.172607 116.950836,360.023071 
	C121.422623,359.147705 126.095367,359.040924 130.677658,359.030792 
	C156.833618,358.972961 182.989868,359.049713 209.623871,359.587585 
	C210.083923,372.699890 210.066116,385.305359 210.048325,397.910797 
	C183.784515,397.967346 157.520721,398.032745 131.256897,398.076385 
	C119.512383,398.095886 114.465622,401.876312 110.751480,414.028076 
	C110.302567,415.738617 110.016777,416.719696 110.014900,417.701324 
	C109.969681,441.346893 109.937958,464.992523 109.975937,488.638031 
	C109.978233,490.071167 110.578362,491.503326 110.900330,492.935944 
	C112.234161,501.197632 117.622833,505.293060 126.095840,507.243958 
	C129.328827,507.643280 131.809052,507.915833 134.289734,507.920044 
	C160.556122,507.964783 186.822556,507.966797 213.088989,507.980560 
	C213.088989,507.980560 213.016708,507.965759 212.999908,508.405304 
	C212.999146,521.259888 213.015198,533.674927 213.031250,546.089966 
	C213.031250,546.089966 213.020340,546.024902 212.579285,546.026733 
	C182.404495,546.021484 152.670792,546.014526 122.937080,546.007507 
z"/>
<path fill="#5D5D5B" opacity="1.000000" stroke="none" 
	d="
M656.167053,486.978790 
	C665.668274,507.464081 667.200195,528.144043 658.635254,548.688660 
	C648.229980,573.647705 629.215820,588.698120 602.572632,594.059998 
	C585.961060,597.403076 569.786499,595.647217 554.946106,587.955688 
	C532.510010,576.327454 516.944458,558.527710 513.106323,532.786072 
	C509.909332,511.344147 514.750610,491.817383 528.755066,474.469635 
	C541.215759,459.034302 557.113525,449.370361 576.191101,447.241241 
	C600.949219,444.478210 624.407410,449.223480 642.242859,468.898590 
	C647.261658,474.435150 651.496216,480.682709 656.167053,486.978790 
M632.943726,527.495667 
	C632.916138,523.814819 633.142029,520.111145 632.814331,516.457214 
	C631.737366,504.447754 626.934875,494.603333 617.261658,486.756104 
	C609.095032,480.131165 600.057068,476.567505 589.922729,476.104401 
	C573.034790,475.332672 553.735352,486.083496 546.259521,504.421417 
	C539.766296,520.349060 543.680603,540.201660 555.746704,552.056091 
	C566.484619,562.605652 579.148254,568.243591 594.272095,565.780457 
	C600.238220,564.808716 606.246826,562.474854 611.578308,559.558716 
	C623.801636,552.872925 630.388977,541.888184 632.943726,527.495667 
z"/>
<path fill="#5D5D5B" opacity="1.000000" stroke="none" 
	d="
M339.180115,592.088501 
	C339.130493,582.060913 339.080902,572.033386 339.047729,561.070068 
	C339.039673,543.730896 339.015198,527.327515 338.990723,510.924133 
	C338.976776,492.440643 346.388733,477.425110 359.121979,464.171417 
	C370.930695,451.880066 385.089874,444.628113 401.378571,441.317017 
	C406.812286,440.212524 412.673523,441.416107 418.302338,441.027954 
	C435.894928,439.814972 451.442108,445.812622 464.666412,456.373383 
	C479.662933,468.349457 490.434784,483.741638 493.040924,503.550354 
	C493.406311,506.327484 493.001862,509.205902 492.959473,512.965820 
	C492.987030,539.959167 493.008911,566.024048 493.030823,592.088989 
	C493.030823,592.088989 493.019409,592.024292 492.578308,592.030579 
	C482.057831,592.031433 471.978455,592.025940 461.899048,592.020508 
	C461.899048,592.020508 461.979370,592.017334 461.962280,591.582825 
	C461.912903,566.937622 461.899078,542.726929 461.820190,518.516418 
	C461.812164,516.051270 461.413208,513.587463 461.195648,511.123077 
	C457.122925,484.392670 435.473602,468.209747 409.159760,471.153412 
	C400.506531,472.121429 393.088959,476.725067 386.149170,482.348389 
	C376.743927,489.969513 372.582520,499.831085 370.769409,512.084106 
	C370.413177,515.200195 370.133545,517.512207 370.127716,519.824829 
	C370.067017,543.914124 370.050323,568.003601 370.021454,592.093018 
	C370.021454,592.093018 370.021545,592.021667 369.582733,592.029175 
	C359.155975,592.053955 349.168060,592.071228 339.180115,592.088501 
z"/>
<path fill="#C15C23" opacity="1.000000" stroke="none" 
	d="
M207.072800,591.938293 
	C205.157089,584.540649 205.304871,577.116150 208.139130,570.087158 
	C208.889328,568.226624 212.088593,567.353516 215.014282,566.018188 
	C231.977982,565.981750 248.090820,565.982300 264.203186,565.894836 
	C266.498688,565.882324 268.791840,565.443298 271.086090,565.201599 
	C279.841095,563.015015 279.640106,555.433594 279.889221,549.034729 
	C280.431427,535.106445 280.123779,521.141724 280.001526,507.193268 
	C279.970032,503.597290 279.562775,499.966064 278.923462,496.424042 
	C278.178101,492.294373 275.388489,489.674255 270.861786,487.798706 
	C268.345795,487.304901 266.535919,486.971313 264.725616,486.968719 
	C248.103043,486.944763 231.480392,486.978210 214.857758,486.994965 
	C210.046280,486.393677 207.382965,483.705322 207.058762,478.843079 
	C206.683304,473.212311 206.373550,467.577209 206.020798,461.703033 
	C207.181915,461.458923 208.101227,461.098755 209.021378,461.096649 
	C231.442642,461.045807 253.880356,460.518677 276.278412,461.230957 
	C287.434906,461.585754 296.011383,468.314087 302.125488,477.558533 
	C307.514648,485.706940 309.301514,494.807465 309.073639,504.629517 
	C308.683319,521.452148 309.359192,538.301514 308.881378,555.119629 
	C308.319122,574.909180 292.806458,591.281616 274.031982,591.966064 
	C251.114456,591.954834 229.093628,591.946594 207.072800,591.938293 
z"/>
<path fill="#BC5B26" opacity="1.000000" stroke="none" 
	d="
M884.972168,646.201660 
	C884.798950,651.110840 885.293762,655.740479 884.348145,660.054504 
	C881.743713,671.935181 871.295715,675.643982 860.155457,674.883423 
	C850.581787,674.229797 843.083984,667.353882 841.068237,658.251282 
	C838.818909,648.094055 842.589172,636.942566 850.292175,632.242554 
	C860.552795,625.982117 881.469177,626.957581 884.972168,646.201660 
M872.134766,643.624939 
	C870.038025,638.747620 865.836792,637.016724 861.277466,638.261841 
	C858.362061,639.058044 855.070862,641.529480 853.669678,644.165161 
	C850.993835,649.198486 851.687988,654.762146 854.061890,660.058289 
	C855.978943,664.335266 859.379578,665.886230 863.757935,666.004761 
	C868.403137,666.130432 871.737305,663.351013 872.483643,659.479370 
	C873.430054,654.569702 872.674805,649.332031 872.134766,643.624939 
z"/>
<path fill="#BC5B26" opacity="1.000000" stroke="none" 
	d="
M799.922913,671.639160 
	C796.558838,672.956543 793.216309,673.806519 789.303345,674.801636 
	C789.303345,659.297241 789.303345,645.076111 789.303345,630.340576 
	C793.091309,630.828613 797.559448,627.495483 799.671631,632.492615 
	C805.090820,631.310852 810.293884,629.896729 815.589355,629.087646 
	C823.330444,627.904846 830.500122,635.444763 830.083496,643.513977 
	C829.571533,653.428040 829.961304,663.388672 829.961304,673.643555 
	C826.211243,673.643555 822.967102,673.643555 818.987488,673.643555 
	C818.987488,665.580322 818.982849,657.499634 818.988770,649.418884 
	C818.994507,641.636902 816.633179,637.957703 811.295471,638.016724 
	C805.000061,638.086243 799.487915,642.586670 799.867859,649.720947 
	C800.247681,656.852356 799.946899,664.020020 799.922913,671.639160 
z"/>
<path fill="#BD5E2A" opacity="1.000000" stroke="none" 
	d="
M936.063843,674.969910 
	C932.183472,674.575195 928.705811,674.449829 925.355835,673.729980 
	C918.503174,672.257507 918.017517,671.083801 920.730286,664.347656 
	C926.041016,664.893311 931.357239,665.561829 936.694275,665.916870 
	C938.404358,666.030579 940.348755,665.658997 941.854492,664.873779 
	C943.127747,664.209839 944.759644,662.591309 944.710938,661.460999 
	C944.653259,660.124756 943.207947,658.136658 941.930542,657.700073 
	C938.280396,656.452759 934.440796,655.665771 930.620178,655.033264 
	C924.783020,654.066895 920.017883,649.964844 919.081909,644.720276 
	C918.187805,639.710388 920.902893,633.249634 925.900879,631.163269 
	C929.546753,629.641296 933.848694,629.126648 937.849731,629.160645 
	C943.034790,629.204651 948.211487,630.240356 954.188232,630.942688 
	C953.696777,634.010559 953.252869,636.781311 952.894104,639.020996 
	C946.639404,638.661255 940.649231,638.058228 934.669495,638.148193 
	C933.108521,638.171570 931.580017,640.351562 930.036621,641.541138 
	C931.319824,642.993774 932.343079,645.207703 933.936523,645.751831 
	C938.185059,647.202393 942.741272,647.723511 947.060852,649.000549 
	C954.100464,651.081909 956.085266,654.355225 955.976501,662.783813 
	C955.911743,667.803955 952.277588,672.340759 946.748535,673.641357 
	C943.420471,674.424194 939.937622,674.549500 936.063843,674.969910 
z"/>
<path fill="#BC5B26" opacity="1.000000" stroke="none" 
	d="
M748.695679,673.686157 
	C745.728455,673.686157 742.761292,673.686157 739.416565,673.686157 
	C739.416565,653.306152 739.416565,632.970764 739.416565,612.128418 
	C742.357544,612.128418 745.130859,612.128418 748.431091,612.661865 
	C748.870544,633.358887 748.783081,653.522522 748.695679,673.686157 
z"/>
<path fill="#BC5B26" opacity="1.000000" stroke="none" 
	d="
M714.160400,612.281616 
	C717.275330,612.306030 720.390320,612.330444 723.760315,613.154419 
	C723.920776,633.867188 723.826172,653.780396 723.731567,673.693604 
	C720.844299,673.755249 717.957092,673.816833 714.559326,673.347656 
	C714.085999,652.638428 714.123230,632.460022 714.160400,612.281616 
z"/>
<path fill="#BC5B26" opacity="1.000000" stroke="none" 
	d="
M764.614868,673.329895 
	C764.301697,658.882935 764.301697,644.777527 764.301697,630.361816 
	C767.855774,630.361816 771.094177,630.361816 774.672607,630.361816 
	C774.672607,644.726440 774.672607,658.964966 774.672607,673.671387 
	C771.420715,673.671387 768.174377,673.671387 764.614868,673.329895 
z"/>
<path fill="#BC5B26" opacity="1.000000" stroke="none" 
	d="
M906.703247,673.681458 
	C903.737915,673.681458 900.772583,673.681458 897.016418,673.681458 
	C897.016418,659.301697 897.016418,644.943604 897.016418,630.112976 
	C899.572266,630.112976 902.693176,630.112976 906.308533,630.654175 
	C906.769775,645.357361 906.736511,659.519409 906.703247,673.681458 
z"/>
<path fill="#BC5B26" opacity="1.000000" stroke="none" 
	d="
M689.296631,630.243958 
	C692.260437,630.243958 695.224243,630.243958 698.569946,630.243958 
	C698.569946,644.694031 698.569946,659.008179 698.569946,673.918701 
	C695.675415,673.918701 692.910828,673.918701 689.660645,673.388916 
	C689.215515,658.654053 689.256042,644.449036 689.296631,630.243958 
z"/>
<path fill="#DDA080" opacity="1.000000" stroke="none" 
	d="
M683.631592,352.147583 
	C683.988464,408.638519 683.960083,465.343903 683.933533,522.516357 
	C683.633118,521.802979 683.067566,520.622742 683.066467,519.441956 
	C683.013794,464.571350 683.009277,409.700714 683.011414,354.830048 
	C683.011475,354.007355 683.164612,353.184662 683.631592,352.147583 
z"/>
<path fill="#BD5E2A" opacity="1.000000" stroke="none" 
	d="
M775.794250,615.450562 
	C775.422852,621.055298 773.042175,623.456238 768.794861,623.044678 
	C765.016296,622.678528 762.245789,619.677856 763.181763,616.106689 
	C763.682800,614.194946 765.449280,611.669067 767.131836,611.211548 
	C770.538940,610.284851 774.010925,611.136780 775.794250,615.450562 
z"/>
<path fill="#BD5E2A" opacity="1.000000" stroke="none" 
	d="
M695.482544,611.164734 
	C699.183533,612.918701 701.234558,615.073853 699.454590,619.087097 
	C697.916626,622.554871 695.084045,623.476746 691.760742,622.744080 
	C688.515930,622.028687 686.468567,619.692261 687.076904,616.317688 
	C687.842285,612.072021 690.950623,610.553528 695.482544,611.164734 
z"/>
<path fill="#BD5E2A" opacity="1.000000" stroke="none" 
	d="
M907.760071,614.614624 
	C907.957642,621.130127 904.201111,624.748535 899.936951,622.339539 
	C897.998169,621.244141 895.400452,618.740967 895.568359,617.134277 
	C895.784363,615.068787 898.151855,612.739624 900.182983,611.465149 
	C903.368958,609.466003 905.661560,611.865906 907.760071,614.614624 
z"/>
<path fill="#B0734F" opacity="1.000000" stroke="none" 
	d="
M716.330078,460.604187 
	C716.009216,458.506622 715.027832,455.977814 715.018555,453.445465 
	C714.905457,422.474792 714.938660,391.503632 714.920349,360.532593 
	C714.918884,358.036285 714.817688,355.540070 715.012085,352.572388 
	C715.454651,352.095367 715.648010,352.089691 715.841431,352.084045 
	C715.895752,383.132996 715.946045,414.181946 716.008484,445.230896 
	C716.018433,450.211090 716.082397,455.191132 716.330078,460.604187 
z"/>
<path fill="#8D8D8B" opacity="1.000000" stroke="none" 
	d="
M123.143585,546.397461 
	C152.670792,546.014526 182.404495,546.021484 212.612244,546.026550 
	C212.390762,546.342102 211.695099,546.937439 210.999756,546.937012 
	C181.783188,546.920471 152.566635,546.850586 123.143585,546.397461 
z"/>
<path fill="#8D8D8B" opacity="1.000000" stroke="none" 
	d="
M212.826752,507.632935 
	C186.822556,507.966797 160.556122,507.964783 134.289734,507.920044 
	C131.809052,507.915833 129.328827,507.643280 126.482727,507.325684 
	C154.932892,507.199158 183.748703,507.242249 212.826752,507.632935 
z"/>
<path fill="#8D8D8B" opacity="1.000000" stroke="none" 
	d="
M461.149841,511.581970 
	C461.413208,513.587463 461.812164,516.051270 461.820190,518.516418 
	C461.899078,542.726929 461.912903,566.937622 461.963776,591.623047 
	C461.661713,590.730530 461.063171,589.363708 461.061615,587.996155 
	C461.033264,562.677734 461.076172,537.359314 461.149841,511.581970 
z"/>
<path fill="#8D8D8B" opacity="1.000000" stroke="none" 
	d="
M370.387024,591.850708 
	C370.050323,568.003601 370.067017,543.914124 370.127716,519.824829 
	C370.133545,517.512207 370.413177,515.200195 370.695984,512.509399 
	C370.801666,538.623352 370.777130,565.115906 370.387024,591.850708 
z"/>
<path fill="#8D8D8B" opacity="1.000000" stroke="none" 
	d="
M110.948257,492.473450 
	C110.578362,491.503326 109.978233,490.071167 109.975937,488.638031 
	C109.937958,464.992523 109.969681,441.346893 110.014900,417.701324 
	C110.016777,416.719696 110.302567,415.738617 110.681221,414.413940 
	C110.936295,440.050720 110.966240,466.030853 110.948257,492.473450 
z"/>
<path fill="#8D8D8B" opacity="1.000000" stroke="none" 
	d="
M493.409912,591.864258 
	C493.008911,566.024048 492.987030,539.959167 492.985413,513.422852 
	C493.354797,513.608032 494.009766,514.264954 494.008850,514.921021 
	C493.972839,540.493896 493.876984,566.066650 493.409912,591.864258 
z"/>
<path fill="#CD8D69" opacity="1.000000" stroke="none" 
	d="
M207.254028,592.335571 
	C229.093628,591.946594 251.114456,591.954834 273.608887,591.985352 
	C273.582275,592.339050 273.081482,592.961182 272.581879,592.960266 
	C250.866272,592.919006 229.150772,592.822571 207.254028,592.335571 
z"/>
<path fill="#CD8D69" opacity="1.000000" stroke="none" 
	d="
M713.725220,612.353943 
	C714.123230,632.460022 714.085999,652.638428 714.134094,673.257324 
	C713.819397,673.152954 713.069275,672.607483 713.070129,672.063232 
	C713.100159,652.184204 713.199890,632.305237 713.725220,612.353943 
z"/>
<path fill="#CD8D69" opacity="1.000000" stroke="none" 
	d="
M749.148010,673.667725 
	C748.783081,653.522522 748.870544,633.358887 748.861938,612.757324 
	C749.148499,612.703491 749.866699,613.088501 749.865723,613.471680 
	C749.815735,633.530945 749.704834,653.590088 749.148010,673.667725 
z"/>
<path fill="#DDA080" opacity="1.000000" stroke="none" 
	d="
M724.186157,673.689087 
	C723.826172,653.780396 723.920776,633.867188 724.010315,613.486572 
	C724.311768,613.345764 724.887207,613.673035 724.886353,613.998840 
	C724.834473,633.894165 724.735413,653.789429 724.186157,673.689087 
z"/>
<path fill="#CD8D69" opacity="1.000000" stroke="none" 
	d="
M270.610870,565.135742 
	C268.791840,565.443298 266.498688,565.882324 264.203186,565.894836 
	C248.090820,565.982300 231.977982,565.981750 215.390900,566.007446 
	C216.081177,565.678223 217.245087,565.068726 218.410614,565.065674 
	C235.652176,565.019775 252.893936,565.054382 270.610870,565.135742 
z"/>
<path fill="#B0734F" opacity="1.000000" stroke="none" 
	d="
M215.088135,487.376282 
	C231.480392,486.978210 248.103043,486.944763 264.725616,486.968719 
	C266.535919,486.971313 268.345795,487.304901 270.531006,487.634247 
	C252.376938,487.774902 233.847733,487.766235 215.088135,487.376282 
z"/>
<path fill="#8D8D8B" opacity="1.000000" stroke="none" 
	d="
M338.595856,511.125610 
	C339.015198,527.327515 339.039673,543.730896 339.027008,560.606812 
	C338.635773,560.422607 337.971680,559.765137 337.973022,559.109192 
	C338.005951,543.181763 338.109863,527.254456 338.595856,511.125610 
z"/>
<path fill="#CD8D69" opacity="1.000000" stroke="none" 
	d="
M907.156250,673.667969 
	C906.736511,659.519409 906.769775,645.357361 906.731934,630.754883 
	C907.102661,630.802734 907.932007,631.292603 907.930054,631.779114 
	C907.874207,645.737793 907.734985,659.696167 907.156250,673.667969 
z"/>
<path fill="#B0734F" opacity="1.000000" stroke="none" 
	d="
M688.857544,630.331909 
	C689.256042,644.449036 689.215515,658.654053 689.230530,673.309814 
	C688.885132,673.359314 688.132690,672.956909 688.134155,672.557190 
	C688.184998,658.511230 688.306702,644.465515 688.857544,630.331909 
z"/>
<path fill="#8D8D8B" opacity="1.000000" stroke="none" 
	d="
M210.435760,397.721680 
	C210.066116,385.305359 210.083923,372.699890 210.095947,359.637329 
	C210.387527,359.870667 210.943726,360.561157 210.943741,361.251648 
	C210.944016,373.345276 210.876221,385.438934 210.435760,397.721680 
z"/>
<path fill="#8D8D8B" opacity="1.000000" stroke="none" 
	d="
M213.406143,545.859741 
	C213.015198,533.674927 212.999146,521.259888 213.007309,508.369171 
	C213.364838,508.572052 213.989487,509.251221 213.988144,509.929108 
	C213.964600,521.829407 213.864532,533.729431 213.406143,545.859741 
z"/>
<path fill="#CD8D69" opacity="1.000000" stroke="none" 
	d="
M715.733276,351.654724 
	C715.648010,352.089691 715.454651,352.095367 714.968811,352.113586 
	C704.742859,352.074890 694.809326,352.023621 684.402710,351.981293 
	C684.773193,351.661194 685.616943,351.046326 686.460327,351.046814 
	C696.181946,351.052429 705.903564,351.151306 715.733276,351.654724 
z"/>
<path fill="#8D8D8B" opacity="1.000000" stroke="none" 
	d="
M462.149963,592.379883 
	C471.978455,592.025940 482.057831,592.031433 492.611145,592.030457 
	C491.576508,592.350769 490.068085,592.957031 488.559296,592.958130 
	C479.839874,592.964294 471.120331,592.827576 462.149963,592.379883 
z"/>
<path fill="#8D8D8B" opacity="1.000000" stroke="none" 
	d="
M339.394531,592.447815 
	C349.168060,592.071228 359.155975,592.053955 369.618408,592.029297 
	C368.402985,592.346863 366.714264,592.943604 365.022949,592.950928 
	C356.552002,592.987793 348.080383,592.870361 339.394531,592.447815 
z"/>
<path fill="#B0734F" opacity="1.000000" stroke="none" 
	d="
M842.178467,506.317627 
	C868.573303,506.121857 895.372925,506.080261 922.654053,506.092407 
	C921.513367,506.428223 919.891479,506.952545 918.268616,506.955872 
	C894.352661,507.004791 870.436584,506.992554 846.520508,506.958984 
	C845.207886,506.957153 843.895691,506.641418 842.178467,506.317627 
z"/>
<path fill="#B0734F" opacity="1.000000" stroke="none" 
	d="
M840.686401,503.326019 
	C840.919800,503.812286 841.037476,504.555389 841.235596,505.669556 
	C841.067566,505.221375 840.819092,504.402130 840.686401,503.326019 
z"/>
</svg>